<svg version="1.0" xmlns="http://www.w3.org/2000/svg" xmlns:xlink="http://www.w3.org/1999/xlink" width="100%" height="100%" viewBox="0 0 250.000000 150.000000" preserveAspectRatio="xMidYMid meet" color-interpolation-filters="sRGB" style="margin: auto;">
  <g fill="#333" class="icon-text-wrapper icon-svg-group iconsvg" transform="translate(40,40)">
    <g class="iconsvg-imagesvg" transform="matrix(1,0,0,1,58.56499481201172,0)" opacity="1">
      <g>
        <rect fill="#333" fill-opacity="0" stroke-width="2" x="0" y="0" width="60" height="55.315853523619865" class="image-rect"></rect>
        <svg x="0" y="0" width="60" height="55.315853523619865"  class="image-svg-svg primary" style="overflow: visible;">
          <svg xmlns="http://www.w3.org/2000/svg" viewBox="0 -0.0029719918966293335 153.130126953125 141.17527770996094">
            <path d="M68.25 117.26l55.13-55.48 27.91-28.09a22 22 0 0 0 1.84-8.88c0-13.52-12.4-24.52-27.81-24.81H58.76a28.59 28.59 0 0 0-29 28.22V106a27.36 27.36 0 0 0 24.38 15.31 26.61 26.61 0 0 0 14.11-4.05z" fill="#e62c5a" opacity=".8" style="isolation:isolate"></path>
            <path d="M123.33 113V35.22A27.35 27.35 0 0 0 99 19.91a26.65 26.65 0 0 0-14.08 4L29.74 79.39l-27.9 28.16A22.18 22.18 0 0 0 0 116.38c0 13.51 12.39 24.5 27.79 24.79h66.6A28.58 28.58 0 0 0 123.33 113z" fill="#0fabf6" opacity=".8" style="isolation:isolate"></path>
            <path d="M84.87 23.91L29.74 79.39V106a27.35 27.35 0 0 0 24.38 15.31 26.72 26.72 0 0 0 14.07-4l55.13-55.48V35.22A27.35 27.35 0 0 0 99 19.91a26.65 26.65 0 0 0-14.13 4z" fill="#501b8d" opacity=".5" style="isolation:isolate"></path>
          </svg>
        </svg>
      </g>
    </g>
    <g transform="translate(0,62.315853118896484)">
      <g class="tp-name iconsvg-namesvg" transform="matrix(1,0,0,1,0,0)" opacity="1">
        <g transform="scale(1)">
          <g>
            <path d="M19.1-14.99C19.1-20 15.56-22.64 9.85-22.64 4.72-22.64 1.28-20.09 1.28-16.65 1.28-8.52 14.8-11.45 14.8-6.19 14.8-4.37 12.92-3.19 10.24-3.19 7.14-3.19 5.33-4.78 5.33-7.37L0.96-7.37C0.96-2.07 4.69 0.32 10.33 0.32 15.5 0.32 19.1-2.26 19.1-6.19 19.1-14.29 5.45-11.83 5.45-16.58 5.45-18.5 7.78-19.17 9.89-19.17 12.79-19.17 14.8-17.54 14.8-14.99ZM33.42-22.32L27.97-22.32 19.96 0 24.62 0 30.55-17.7 30.87-17.7 37.22 0 42.19 0ZM54.85-2.9L57.82-2.9 64.23-14.29 64.39-14.29 64.39 0 68.7 0 68.7-22.32 64.33-22.32 56.61-8.07 56.48-8.07 48.83-22.32 44.52-22.32ZM44.52 0L48.7 0 48.7-8.77 44.52-16.62ZM89.27-18.15L89.27-22.32 72.75-22.32 72.75-18.15ZM89.27-9.18L89.27-13.14 72.75-13.14 72.75-9.18ZM72.75 0L89.27 0 89.27-4.21 72.75-4.21ZM93.35 0L97.72 0 97.72-9.06 108.69-9.06 108.69-12.92 97.72-12.92 97.72-18.15 109.81-18.15 109.81-22.32 93.35-22.32ZM122.24-22.32L116.79-22.32 108.78 0 113.44 0 119.37-17.7 119.69-17.7 126.04 0 131.01 0ZM143.67-2.9L146.64-2.9 153.05-14.29 153.21-14.29 153.21 0 157.52 0 157.52-22.32 153.15-22.32 145.43-8.07 145.3-8.07 137.65-22.32 133.34-22.32ZM133.34 0L137.52 0 137.52-8.77 133.34-16.62ZM178.09-18.15L178.09-22.32 161.57-22.32 161.57-18.15ZM178.09-9.18L178.09-13.14 161.57-13.14 161.57-9.18ZM161.57 0L178.09 0 178.09-4.21 161.57-4.21Z" transform="translate(-0.9600000381469727, 22.639999389648438)"></path>
          </g>
        </g>
      </g>
    </g>
  </g>
  <defs></defs>
</svg>
